# xmcd
#
# Track frame offsets: 
#        182
#        18300
#        41820
#        73987
#
# Disc length: 1409 seconds
#
# Revision: 3
# Processed by: cddbd v1.5.2PL0 Copyright (c) Steve Scherf et al.
# Submitted via: ExactAudioCopy v1.0b1
#
DISCID=34057f04
DTITLE=Alabama 3 - "Ain't Goin' to Goa" and "Mao Tse Tung Said" [cd-s]
DYEAR=1996
DGENRE=Country
TTITLE0=Ain't Goin' to Goa
TTITLE1=Mao Tse Tung Said [radio k mix]
TTITLE2=Ain't Goin' to Goa [12"]
TTITLE3=Ain't Goin' to Goa [cayenna mix]
EXTD=
EXTT0=
EXTT1=
EXTT2=
EXTT3=
PLAYORDER=
